<svg viewBox="0 0 440 250" xmlns="http://www.w3.org/2000/svg"><g fill="#fff"><path d="m16.34 221.08 3.11-4.52c2.26-3.11 4.66-3.25 8.2-1.27 3.25 2.26 10.46 7.35 20.35 7.35 9.33 0 15-4.66 15-11.45 0-19.08-46.79-15.12-46.79-46.36 0-17.67 14.7-29.12 33.78-29.12 11.87 0 21.63 4.52 25.87 7.63 3.11 2.26 3.53 4.95 1.84 8.06l-2.54 4.66c-2.12 4.1-5.09 3.53-8.06 2-4.1-2.4-9.61-5.51-17.39-5.51-9.33 0-15.27 4.52-15.27 11.31 0 18.8 46.79 14 46.79 45.94 0 16.25-12.16 29.68-33.22 29.68a53.22 53.22 0 0 1 -30.81-10.18c-2.27-2.01-3.68-4.41-.86-8.22z"/><path d="m122.64 164c20.49 0 31.94 14.56 31.94 34.35a6.25 6.25 0 0 1 -6.22 6.08h-44c1.13 13 10.74 19.79 21.63 19.79a29.8 29.8 0 0 0 15.55-4.66c3.53-1.7 6.08-1.27 7.92 2l1.7 2.83c1.7 3.25 1.13 6.08-2 7.91a45.56 45.56 0 0 1 -24.45 7.21c-23.89 0-38.73-17.24-38.73-37.74.02-22.25 15.02-37.77 36.66-37.77zm14.13 29.54c-.28-10-6.36-16-14.56-16-9.19 0-15.69 6.36-17.39 16z"/><path d="m200 164a40.3 40.3 0 0 1 23.6 7.21c3 2 3.11 4.95 1.13 8.06l-1.84 2.83c-2.12 3.25-4.52 3.25-7.91 1.55a25.2 25.2 0 0 0 -14-4.38c-13.29 0-21.91 10-21.91 22.33s8.62 22.61 22.47 22.61a28.18 28.18 0 0 0 16.11-5.51c3.53-2 6.22-1.55 8.06 1.84l1.41 2.69c1.7 3.11 1.27 5.94-1.55 7.92a42.83 42.83 0 0 1 -25.57 8.3c-23.89 0-39.15-16.82-39.15-37.74-.02-20.49 15.25-37.71 39.15-37.71z"/><path d="m233.63 171.6c0-3.82 2.12-5.94 5.94-5.94h6.08c4 0 5.94 2.12 5.94 5.94v36.75c0 8.76 2.26 14.7 11.17 14.7 13 0 20.21-11.45 20.21-24.31v-27.14c0-3.82 2-5.94 5.94-5.94h6.09c3.82 0 5.94 2.12 5.94 5.94v60.21c0 4-2.12 5.94-5.94 5.94h-5.51c-3.82 0-5.8-2-5.8-5.94v-4.24a20.57 20.57 0 0 1 .28-3.25h-.28c-3.39 7.35-12.72 15.12-25 15.12-15.41 0-25-7.77-25-27.42z"/><path d="m310.66 171.6c0-3.82 2-5.94 5.8-5.94h5.54c3.82 0 5.94 2.12 5.94 5.94v6.78a30 30 0 0 1 -.42 4.95h.28c2.83-8.62 10.74-18.23 20.92-18.23 4 0 5.37 2 5.37 5.94v5.51c0 3.82-2.26 5.94-6.08 5.94-13.15 0-19.51 13-19.51 26.15v23.18c0 4-2 5.94-5.8 5.94h-6.22c-3.82 0-5.8-2-5.8-5.94z"/><path d="m389.82 164c20.49 0 31.94 14.56 31.94 34.35a6.25 6.25 0 0 1 -6.22 6.08h-44c1.13 13 10.74 19.79 21.63 19.79a29.8 29.8 0 0 0 15.55-4.66c3.53-1.7 6.08-1.27 7.92 2l1.7 2.83c1.7 3.25 1.13 6.08-2 7.91a45.56 45.56 0 0 1 -24.45 7.21c-23.89 0-38.73-17.24-38.73-37.74.05-22.25 15.03-37.77 36.66-37.77zm14.18 29.51c-.28-10-6.36-16-14.56-16-9.19 0-15.69 6.36-17.39 16z"/><path d="m16.34 94.72 3.11-4.52c2.26-3.11 4.66-3.25 8.2-1.27 3.25 2.26 10.46 7.35 20.35 7.35 9.33 0 15-4.66 15-11.45 0-19.08-46.8-15.13-46.8-46.36 0-17.67 14.7-29.12 33.8-29.12 11.87 0 21.63 4.52 25.87 7.63 3.13 2.27 3.51 4.95 1.82 8.02l-2.55 4.7c-2.12 4.1-5.09 3.53-8.06 2-4.1-2.4-9.61-5.51-17.39-5.51-9.33 0-15.27 4.52-15.27 11.31 0 18.8 46.78 14 46.78 45.94 0 16.25-12.16 29.68-33.22 29.68a53.22 53.22 0 0 1 -30.81-10.18c-2.24-2-3.65-4.4-.83-8.22z"/><path d="m87.73 45.25c0-3.82 2-5.94 5.79-5.94h6.22c3.82 0 5.8 2.12 5.8 5.94v60.21c0 4-2 5.94-5.8 5.94h-6.22c-3.82 0-5.79-2-5.79-5.94z"/><path d="m115.15 45.25c0-3.82 2-5.94 5.8-5.94h5.51c3.82 0 5.79 2.12 5.79 5.94v4.38a23.07 23.07 0 0 1 -.28 3.25h.28c3.53-7.07 12.3-15.27 23.6-15.27 10.88 0 18.09 5.09 21.06 14.84h.28a28.57 28.57 0 0 1 24.59-14.84c15 0 23.6 8.48 23.6 27.42v40.42c0 4-2.12 5.94-5.94 5.94h-6.08q-5.94 0-5.94-5.94v-37c0-8.2-1.56-14.42-9.89-14.42-12.16 0-18.37 12.44-18.37 25v26.43c0 4-2 5.94-5.8 5.94h-6.22c-3.82 0-5.94-2-5.94-5.94v-37c0-7.77-1.13-14.42-9.61-14.42-12.7-.04-18.59 12.96-18.59 24.96v26.43c0 4-2 5.94-5.8 5.94h-6.22c-3.82 0-5.8-2-5.8-5.94z"/><path d="m234.73 45.25c0-3.82 2.12-5.94 5.94-5.94h4.52c3.82 0 5.8 2.12 5.8 4.95v3.25c0 1.55-.14 2.83-.14 2.83h.28s6.36-12.72 23.18-12.72c19.51 0 32.09 15.41 32.09 37.74 0 22.9-14.13 37.74-33.07 37.74-15 0-20.78-11-20.78-11h-.28a41.79 41.79 0 0 1 .42 6.22v25.44q0 5.94-5.94 5.94h-6.08c-3.82 0-5.94-2-5.94-5.94zm35.34 52.75c9.89 0 18.09-8.06 18.09-22.33 0-13.71-7.35-22.62-17.81-22.62-9.33 0-18.23 6.78-18.23 22.76-.01 11.14 6.21 22.19 17.95 22.19z"/><path d="m314.87 17c0-3.82 2-5.94 5.8-5.94h6.22c3.82 0 5.8 2.12 5.8 5.94v70.51c0 7.07 3 8.34 5.65 8.62s4.38 1.84 4.38 5.09v4.78c0 3.67-1.7 6.08-5.94 6.08-9.61 0-21.91-2.54-21.91-23.18z"/><path d="m350 125a12.18 12.18 0 0 0 5.09 1.27c5.23 0 9.33-4.52 11.45-9.61l2.69-6.36-27.42-64c-1.84-4.1 0-6.93 4.52-6.93h7.67c3.53 0 5.51 1.55 6.64 4.81l13.57 36.75c1.27 3.82 2.69 9.75 2.69 9.75h.28s1.27-5.65 2.4-9.47l12.72-36.95c1-3.39 3.11-4.95 6.64-4.95h7.06c4.38 0 6.22 2.69 4.81 6.78l-29.68 76c-4.95 13.15-15.41 18.94-26 18.94a27.85 27.85 0 0 1 -10-2.12c-3.39-1.27-4.24-4.38-2.69-7.63l1.27-3.11c1.53-3.17 3.93-3.77 6.29-3.17z"/><circle cx="96.61" cy="22.77" r="9.04"/></g></svg>