<svg id="Layer_1" data-name="Layer 1" xmlns="http://www.w3.org/2000/svg" viewBox="0 0 888 144"><defs><style>.cls-1{fill:#fff;}</style></defs><title>simply-secure-assets</title><g id="_Group_" data-name="&lt;Group&gt;"><g id="_Group_2" data-name="&lt;Group&gt;"><path id="_Compound_Path_" data-name="&lt;Compound Path&gt;" class="cls-1" d="M452.15,93.14l3.32-4.83c2.41-3.32,5-3.47,8.75-1.36,3.47,2.41,11.16,7.84,21.72,7.84,10,0,16-5,16-12.22,0-20.36-49.92-16.14-49.92-49.47C452,14.26,467.68,2,488,2c12.67,0,23.08,4.83,27.6,8.14,3.32,2.41,3.77,5.28,2,8.6l-2.71,5c-2.26,4.37-5.43,3.77-8.6,2.11C501.92,23.31,496,20,487.74,20c-10,0-16.29,4.83-16.29,12.07,0,20.06,49.92,14.93,49.92,49,0,17.34-13,31.67-35.44,31.67a56.79,56.79,0,0,1-32.88-10.86C450.64,99.77,449.13,97.21,452.15,93.14Z"/><path id="_Compound_Path_2" data-name="&lt;Compound Path&gt;" class="cls-1" d="M565.56,32.21c21.87,0,34.08,15.53,34.08,36.65A6.67,6.67,0,0,1,593,75.34h-46.9c1.21,13.88,11.46,21.11,23.08,21.11a31.79,31.79,0,0,0,16.59-5c3.77-1.81,6.48-1.36,8.45,2.11l1.81,3c1.81,3.47,1.21,6.48-2.11,8.44a48.61,48.61,0,0,1-26.09,7.69c-25.49,0-41.32-18.4-41.32-40.27C526.5,48.8,542.49,32.21,565.56,32.21Zm15.08,31.52c-.3-10.71-6.79-17-15.53-17-9.8,0-16.74,6.79-18.55,17Z"/><path id="_Compound_Path_3" data-name="&lt;Compound Path&gt;" class="cls-1" d="M648.09,32.21a43,43,0,0,1,25.19,7.69c3.17,2.11,3.32,5.28,1.21,8.6l-2,3c-2.26,3.47-4.83,3.47-8.44,1.66a26.89,26.89,0,0,0-14.93-4.67c-14.18,0-23.38,10.71-23.38,23.83,0,13,9.2,24.13,24,24.13a30.07,30.07,0,0,0,17.19-5.88c3.77-2.11,6.64-1.66,8.6,2L677,95.4c1.81,3.32,1.36,6.33-1.66,8.45a45.7,45.7,0,0,1-27.3,8.9c-25.49,0-41.78-17.95-41.78-40.27C606.32,50.61,622.6,32.21,648.09,32.21Z"/><path id="_Compound_Path_4" data-name="&lt;Compound Path&gt;" class="cls-1" d="M684,40.35c0-4.07,2.26-6.33,6.33-6.33h6.49c4.22,0,6.33,2.26,6.33,6.33V79.56c0,9.35,2.41,15.68,11.91,15.68,13.87,0,21.57-12.22,21.57-25.94v-29c0-4.07,2.11-6.33,6.33-6.33h6.49c4.07,0,6.33,2.26,6.33,6.33V104.6c0,4.22-2.26,6.33-6.33,6.33h-5.88c-4.07,0-6.18-2.11-6.18-6.33v-4.52a21.94,21.94,0,0,1,.3-3.47h-.3c-3.62,7.84-13.57,16.14-26.69,16.14-16.44,0-26.69-8.29-26.69-29.26Z"/><path id="_Compound_Path_5" data-name="&lt;Compound Path&gt;" class="cls-1" d="M766.19,40.35c0-4.07,2.11-6.33,6.18-6.33h5.88c4.07,0,6.33,2.26,6.33,6.33v7.24a32,32,0,0,1-.45,5.28h.3c3-9.2,11.46-19.46,22.32-19.46,4.22,0,5.73,2.11,5.73,6.33v5.88c0,4.07-2.41,6.33-6.48,6.33-14,0-20.81,13.88-20.81,27.9V104.6c0,4.22-2.11,6.33-6.18,6.33h-6.64c-4.07,0-6.18-2.11-6.18-6.33Z"/><path id="_Compound_Path_6" data-name="&lt;Compound Path&gt;" class="cls-1" d="M850.65,32.21c21.87,0,34.08,15.53,34.08,36.65a6.67,6.67,0,0,1-6.64,6.48h-46.9c1.21,13.88,11.46,21.11,23.08,21.11a31.79,31.79,0,0,0,16.59-5c3.77-1.81,6.48-1.36,8.45,2.11l1.81,3c1.81,3.47,1.21,6.48-2.11,8.44a48.61,48.61,0,0,1-26.09,7.69c-25.49,0-41.32-18.4-41.32-40.27C811.58,48.8,827.57,32.21,850.65,32.21Zm15.08,31.52c-.3-10.71-6.79-17-15.53-17-9.8,0-16.74,6.79-18.55,17Z"/></g><g id="_Group_3" data-name="&lt;Group&gt;"><path id="_Compound_Path_7" data-name="&lt;Compound Path&gt;" class="cls-1" d="M8,93.14l3.32-4.83c2.41-3.32,5-3.47,8.75-1.36,3.47,2.41,11.16,7.84,21.72,7.84,10,0,16-5,16-12.22,0-20.36-49.92-16.14-49.92-49.47C7.86,14.26,23.54,2,43.9,2,56.57,2,67,6.87,71.5,10.19c3.32,2.41,3.77,5.28,2,8.6l-2.71,5c-2.26,4.37-5.43,3.77-8.6,2.11C57.78,23.31,51.9,20,43.6,20c-10,0-16.29,4.83-16.29,12.07,0,20.06,49.92,14.93,49.92,49,0,17.34-13,31.67-35.44,31.67A56.79,56.79,0,0,1,8.91,101.88C6.5,99.77,5,97.21,8,93.14Z"/><path id="_Compound_Path_8" data-name="&lt;Compound Path&gt;" class="cls-1" d="M84.17,40.35c0-4.07,2.11-6.33,6.18-6.33H97c4.07,0,6.18,2.26,6.18,6.33V104.6c0,4.22-2.11,6.33-6.18,6.33H90.36c-4.07,0-6.18-2.11-6.18-6.33Z"/><path id="_Compound_Path_9" data-name="&lt;Compound Path&gt;" class="cls-1" d="M113.43,40.35c0-4.07,2.11-6.33,6.18-6.33h5.88c4.07,0,6.18,2.26,6.18,6.33V45a24.62,24.62,0,0,1-.3,3.47h.3c3.77-7.54,13.12-16.29,25.19-16.29,11.61,0,19.3,5.43,22.47,15.84h.3a30.48,30.48,0,0,1,26.24-15.84c16,0,25.19,9,25.19,29.26V104.6c0,4.22-2.26,6.33-6.33,6.33h-6.48q-6.33,0-6.33-6.33V65.08c0-8.75-1.66-15.38-10.56-15.38-13,0-19.61,13.27-19.61,26.69v28.2c0,4.22-2.11,6.33-6.18,6.33h-6.64c-4.07,0-6.33-2.11-6.33-6.33V65.08c0-8.29-1.21-15.38-10.26-15.38-13.57,0-19.91,13.88-19.91,26.69v28.2c0,4.22-2.11,6.33-6.18,6.33h-6.64c-4.07,0-6.18-2.11-6.18-6.33Z"/><path id="_Compound_Path_10" data-name="&lt;Compound Path&gt;" class="cls-1" d="M241,40.35c0-4.07,2.26-6.33,6.33-6.33h4.83c4.07,0,6.18,2.26,6.18,5.28v3.47c0,1.66-.15,3-.15,3h.3s6.79-13.57,24.73-13.57c20.81,0,34.24,16.44,34.24,40.27,0,24.43-15.08,40.27-35.29,40.27C266.21,112.74,260,101,260,101h-.3a44.59,44.59,0,0,1,.45,6.64v27.15q0,6.33-6.33,6.33h-6.48c-4.07,0-6.33-2.11-6.33-6.33Zm37.7,56.25c10.56,0,19.3-8.6,19.3-23.83,0-14.63-7.84-24.13-19-24.13-10,0-19.46,7.24-19.46,24.28C259.58,84.84,266.21,96.6,278.73,96.6Z"/><path id="_Compound_Path_11" data-name="&lt;Compound Path&gt;" class="cls-1" d="M326.54,10.19c0-4.07,2.11-6.33,6.18-6.33h6.64c4.07,0,6.18,2.26,6.18,6.33V85.44c0,7.54,3.17,8.9,6,9.2,2.71.3,4.68,2,4.68,5.43v5.13c0,3.92-1.81,6.48-6.33,6.48-10.26,0-23.38-2.71-23.38-24.73Z"/><path id="_Compound_Path_12" data-name="&lt;Compound Path&gt;" class="cls-1" d="M364.07,125.41a13,13,0,0,0,5.43,1.36c5.58,0,10-4.83,12.22-10.26l2.87-6.79L355.32,41.41c-2-4.37,0-7.39,4.83-7.39h8.14c3.77,0,5.88,1.66,7.09,5.13l14.48,39.21c1.36,4.07,2.87,10.41,2.87,10.41h.3s1.36-6,2.56-10.1l13.57-39.36c1.06-3.62,3.32-5.28,7.09-5.28h7.54c4.68,0,6.64,2.87,5.13,7.24l-31.67,81.14c-5.28,14-16.44,20.21-27.75,20.21a29.72,29.72,0,0,1-10.71-2.26c-3.62-1.36-4.52-4.67-2.87-8.14l1.36-3.32C358.94,125.41,361.5,124.81,364.07,125.41Z"/><circle id="_Path_" data-name="&lt;Path&gt;" class="cls-1" cx="93.66" cy="16.36" r="9.65"/></g></g></svg>