<?xml version="1.0" encoding="UTF-8"?>
<svg width="37px" height="42px" viewBox="0 0 37 42" version="1.1" xmlns="http://www.w3.org/2000/svg" xmlns:xlink="http://www.w3.org/1999/xlink">
    <!-- Generator: Sketch 63.1 (92452) - https://sketch.com -->
    <title>Group 5</title>
    <desc>Created with Sketch.</desc>
    <g id="01-Finals" stroke="none" stroke-width="1" fill="none" fill-rule="evenodd">
        <g id="Guide-/-Illustration-System" transform="translate(-966.000000, -831.000000)">
            <g id="Group-5" transform="translate(960.000000, 828.000000)">
                <g id="Group-4">
                    <rect id="Rectangle" x="0" y="0" width="48" height="48"></rect>
                    <path d="M24.25,43 C24.8001542,43 25.2461423,43.4477153 25.2461423,44 C25.2461423,44.5522847 24.8001542,45 24.25,45 C23.6998458,45 23.2538577,44.5522847 23.2538577,44 C23.2538577,43.4477153 23.6998458,43 24.25,43 Z M24.25,39 C24.8001542,39 25.2461423,39.4477153 25.2461423,40 C25.2461423,40.5522847 24.8001542,41 24.25,41 C23.6998458,41 23.2538577,40.5522847 23.2538577,40 C23.2538577,39.4477153 23.6998458,39 24.25,39 Z M24.25,35 C24.8001542,35 25.2461423,35.4477153 25.2461423,36 C25.2461423,36.5522847 24.8001542,37 24.25,37 C23.6998458,37 23.2538577,36.5522847 23.2538577,36 C23.2538577,35.4477153 23.6998458,35 24.25,35 Z M6.49823678,33.1339734 C6.97468503,32.8578322 7.58391612,33.0217074 7.85899447,33.4999993 C8.13407034,33.9782926 7.97082736,34.589883 7.49438055,34.8660266 C7.0179323,35.1421678 6.40870121,34.9782926 6.13362286,34.5000007 C5.85854699,34.0217074 6.02178997,33.410117 6.49823678,33.1339734 Z M40.6410055,33.4999993 C40.9160839,33.0217074 41.525315,32.8578322 42.0017632,33.1339734 C42.47821,33.410117 42.641453,34.0217074 42.3663771,34.5000007 C42.0912988,34.9782926 41.4820677,35.1421678 41.0056195,34.8660266 C40.5291726,34.589883 40.3659297,33.9782926 40.6410055,33.4999993 Z M24.25,31 C24.8001542,31 25.2461423,31.4477153 25.2461423,32 C25.2461423,32.5522847 24.8001542,33 24.25,33 C23.6998458,33 23.2538577,32.5522847 23.2538577,32 C23.2538577,31.4477153 23.6998458,31 24.25,31 Z M9.94897505,31.1339734 C10.4254233,30.8578322 11.0346544,31.0217074 11.3097327,31.4999993 C11.5848086,31.9782926 11.4215656,32.589883 10.9451188,32.8660266 C10.4686706,33.1421678 9.85943947,32.9782926 9.58436113,32.5000007 C9.30928526,32.0217074 9.47252823,31.410117 9.94897505,31.1339734 Z M37.1902673,31.4999993 C37.4653456,31.0217074 38.0745767,30.8578322 38.5510249,31.1339734 C39.0274718,31.410117 39.1907147,32.0217074 38.9156389,32.5000007 C38.6405605,32.9782926 38.0313294,33.1421678 37.5548812,32.8660266 C37.0784344,32.589883 36.9151914,31.9782926 37.1902673,31.4999993 Z M13.3997133,29.1339734 C13.8761616,28.8578322 14.4853927,29.0217074 14.760471,29.4999993 C15.0355469,29.9782926 14.8723039,30.589883 14.3958571,30.8660266 C13.9194088,31.1421678 13.3101777,30.9782926 13.0350994,30.5000007 C12.7600235,30.0217074 12.9232665,29.410117 13.3997133,29.1339734 Z M33.739529,29.4999993 C34.0146073,29.0217074 34.6238384,28.8578322 35.1002867,29.1339734 C35.5767335,29.410117 35.7399765,30.0217074 35.4649006,30.5000007 C35.1898223,30.9782926 34.5805912,31.1421678 34.1041429,30.8660266 C33.6276961,30.589883 33.4644531,29.9782926 33.739529,29.4999993 Z M24.25,27 C24.8001542,27 25.2461423,27.4477153 25.2461423,28 C25.2461423,28.5522847 24.8001542,29 24.25,29 C23.6998458,29 23.2538577,28.5522847 23.2538577,28 C23.2538577,27.4477153 23.6998458,27 24.25,27 Z M16.8504516,27.1339734 C17.3268998,26.8578322 17.9361309,27.0217074 18.2112093,27.4999993 C18.4862851,27.9782926 18.3230422,28.589883 17.8465953,28.8660266 C17.3701471,29.1421678 16.760916,28.9782926 16.4858377,28.5000007 C16.2107618,28.0217074 16.3740048,27.410117 16.8504516,27.1339734 Z M30.2887907,27.4999993 C30.5638691,27.0217074 31.1731002,26.8578322 31.6495484,27.1339734 C32.1259952,27.410117 32.2892382,28.0217074 32.0141623,28.5000007 C31.739084,28.9782926 31.1298529,29.1421678 30.6534047,28.8660266 C30.1769578,28.589883 30.0137149,27.9782926 30.2887907,27.4999993 Z M20.3011899,25.1339734 C20.7776381,24.8578322 21.3868692,25.0217074 21.6619475,25.4999993 C21.9370234,25.9782926 21.7737804,26.589883 21.2973336,26.8660266 C20.8208854,27.1421678 20.2116543,26.9782926 19.9365759,26.5000007 C19.6615001,26.0217074 19.824743,25.410117 20.3011899,25.1339734 Z M26.8380525,25.4999993 C27.1131308,25.0217074 27.7223619,24.8578322 28.1988101,25.1339734 C28.675257,25.410117 28.8384999,26.0217074 28.5634241,26.5000007 C28.2883457,26.9782926 27.6791146,27.1421678 27.2026664,26.8660266 C26.7262196,26.589883 26.5629766,25.9782926 26.8380525,25.4999993 Z M23.7519281,23.1339734 C24.2283764,22.8578322 24.8376075,23.0217074 25.1126858,23.4999993 C25.3877617,23.9782926 25.2245187,24.589883 24.7480719,24.8660266 C24.2716236,25.1421678 23.6623925,24.9782926 23.3873142,24.5000007 C23.1122383,24.0217074 23.2754813,23.410117 23.7519281,23.1339734 Z M27.2026664,21.1339734 C27.6791146,20.8578322 28.2883457,21.0217074 28.5634241,21.4999993 C28.8384999,21.9782926 28.675257,22.589883 28.1988101,22.8660266 C27.7223619,23.1421678 27.1131308,22.9782926 26.8380525,22.5000007 C26.5629766,22.0217074 26.7262196,21.410117 27.2026664,21.1339734 Z M19.9365759,21.4999993 C20.2116543,21.0217074 20.8208854,20.8578322 21.2973336,21.1339734 C21.7737804,21.410117 21.9370234,22.0217074 21.6619475,22.5000007 C21.3868692,22.9782926 20.7776381,23.1421678 20.3011899,22.8660266 C19.824743,22.589883 19.6615001,21.9782926 19.9365759,21.4999993 Z M24.25,19 C24.8001542,19 25.2461423,19.4477153 25.2461423,20 C25.2461423,20.5522847 24.8001542,21 24.25,21 C23.6998458,21 23.2538577,20.5522847 23.2538577,20 C23.2538577,19.4477153 23.6998458,19 24.25,19 Z M30.6534047,19.1339734 C31.1298529,18.8578322 31.739084,19.0217074 32.0141623,19.4999993 C32.2892382,19.9782926 32.1259952,20.589883 31.6495484,20.8660266 C31.1731002,21.1421678 30.5638691,20.9782926 30.2887907,20.5000007 C30.0137149,20.0217074 30.1769578,19.410117 30.6534047,19.1339734 Z M16.4858377,19.4999993 C16.760916,19.0217074 17.3701471,18.8578322 17.8465953,19.1339734 C18.3230422,19.410117 18.4862851,20.0217074 18.2112093,20.5000007 C17.9361309,20.9782926 17.3268998,21.1421678 16.8504516,20.8660266 C16.3740048,20.589883 16.2107618,19.9782926 16.4858377,19.4999993 Z M34.1041429,17.1339734 C34.5805912,16.8578322 35.1898223,17.0217074 35.4649006,17.4999993 C35.7399765,17.9782926 35.5767335,18.589883 35.1002867,18.8660266 C34.6238384,19.1421678 34.0146073,18.9782926 33.739529,18.5000007 C33.4644531,18.0217074 33.6276961,17.410117 34.1041429,17.1339734 Z M13.0350994,17.4999993 C13.3101777,17.0217074 13.9194088,16.8578322 14.3958571,17.1339734 C14.8723039,17.410117 15.0355469,18.0217074 14.760471,18.5000007 C14.4853927,18.9782926 13.8761616,19.1421678 13.3997133,18.8660266 C12.9232665,18.589883 12.7600235,17.9782926 13.0350994,17.4999993 Z M24.25,15 C24.8001542,15 25.2461423,15.4477153 25.2461423,16 C25.2461423,16.5522847 24.8001542,17 24.25,17 C23.6998458,17 23.2538577,16.5522847 23.2538577,16 C23.2538577,15.4477153 23.6998458,15 24.25,15 Z M37.5548812,15.1339734 C38.0313294,14.8578322 38.6405605,15.0217074 38.9156389,15.4999993 C39.1907147,15.9782926 39.0274718,16.589883 38.5510249,16.8660266 C38.0745767,17.1421678 37.4653456,16.9782926 37.1902673,16.5000007 C36.9151914,16.0217074 37.0784344,15.410117 37.5548812,15.1339734 Z M9.58436113,15.4999993 C9.85943947,15.0217074 10.4686706,14.8578322 10.9451188,15.1339734 C11.4215656,15.410117 11.5848086,16.0217074 11.3097327,16.5000007 C11.0346544,16.9782926 10.4254233,17.1421678 9.94897505,16.8660266 C9.47252823,16.589883 9.30928526,15.9782926 9.58436113,15.4999993 Z M41.0056195,13.1339734 C41.4820677,12.8578322 42.0912988,13.0217074 42.3663771,13.4999993 C42.641453,13.9782926 42.47821,14.589883 42.0017632,14.8660266 C41.525315,15.1421678 40.9160839,14.9782926 40.6410055,14.5000007 C40.3659297,14.0217074 40.5291726,13.410117 41.0056195,13.1339734 Z M6.13362286,13.4999993 C6.40870121,13.0217074 7.0179323,12.8578322 7.49438055,13.1339734 C7.97082736,13.410117 8.13407034,14.0217074 7.85899447,14.5000007 C7.58391612,14.9782926 6.97468503,15.1421678 6.49823678,14.8660266 C6.02178997,14.589883 5.85854699,13.9782926 6.13362286,13.4999993 Z M24.25,11 C24.8001542,11 25.2461423,11.4477153 25.2461423,12 C25.2461423,12.5522847 24.8001542,13 24.25,13 C23.6998458,13 23.2538577,12.5522847 23.2538577,12 C23.2538577,11.4477153 23.6998458,11 24.25,11 Z M24.25,7 C24.8001542,7 25.2461423,7.44771525 25.2461423,8 C25.2461423,8.55228475 24.8001542,9 24.25,9 C23.6998458,9 23.2538577,8.55228475 23.2538577,8 C23.2538577,7.44771525 23.6998458,7 24.25,7 Z M24.25,3 C24.8001542,3 25.2461423,3.44771525 25.2461423,4 C25.2461423,4.55228475 24.8001542,5 24.25,5 C23.6998458,5 23.2538577,4.55228475 23.2538577,4 C23.2538577,3.44771525 23.6998458,3 24.25,3 Z" id="Combined-Shape" fill="#A0ADC0"></path>
                </g>
            </g>
        </g>
    </g>
</svg>